<mxfile host="65bd71144e">
    <diagram id="oZzU_LMR9qCsbZYg_dwi" name="arp header">
        <mxGraphModel dx="754" dy="539" grid="1" gridSize="10" guides="1" tooltips="1" connect="1" arrows="1" fold="1" page="1" pageScale="1" pageWidth="827" pageHeight="1169" math="0" shadow="0">
            <root>
                <mxCell id="2EAHLfIU27dGH2C2QQsN-0"/>
                <mxCell id="2EAHLfIU27dGH2C2QQsN-1" parent="2EAHLfIU27dGH2C2QQsN-0"/>
                <mxCell id="h4omkXk8J46wiH_T5vhW-1" value="" style="rounded=0;whiteSpace=wrap;html=1;fontSize=18;strokeColor=none;fillColor=#FFFFFF;" parent="2EAHLfIU27dGH2C2QQsN-1" vertex="1">
                    <mxGeometry x="40" y="51" width="760" height="260" as="geometry"/>
                </mxCell>
                <mxCell id="2EAHLfIU27dGH2C2QQsN-2" value="&lt;font color=&quot;#000000&quot;&gt;Hardware Type&lt;/font&gt;" style="rounded=0;whiteSpace=wrap;html=1;fontSize=14;strokeColor=#000000;fillColor=#FFFFFF;" parent="2EAHLfIU27dGH2C2QQsN-1" vertex="1">
                    <mxGeometry x="241" y="120" width="320" height="40" as="geometry"/>
                </mxCell>
                <mxCell id="2EAHLfIU27dGH2C2QQsN-3" value="&lt;font color=&quot;#000000&quot;&gt;Protocol Type&lt;/font&gt;" style="rounded=0;whiteSpace=wrap;html=1;fontSize=14;fillColor=#FFFFFF;strokeColor=#000000;" parent="2EAHLfIU27dGH2C2QQsN-1" vertex="1">
                    <mxGeometry x="241" y="160" width="320" height="40" as="geometry"/>
                </mxCell>
                <mxCell id="2EAHLfIU27dGH2C2QQsN-4" value="&lt;font style=&quot;font-size: 12px&quot; color=&quot;#000000&quot;&gt;Hardware Address Length&lt;/font&gt;" style="rounded=0;whiteSpace=wrap;html=1;fontSize=14;fillColor=#FFFFFF;strokeColor=#000000;" parent="2EAHLfIU27dGH2C2QQsN-1" vertex="1">
                    <mxGeometry x="241" y="200" width="160" height="40" as="geometry"/>
                </mxCell>
                <mxCell id="2EAHLfIU27dGH2C2QQsN-5" value="&lt;font style=&quot;font-size: 12px&quot; color=&quot;#000000&quot;&gt;Protocol Address Length&lt;/font&gt;" style="rounded=0;whiteSpace=wrap;html=1;fontSize=14;fillColor=#FFFFFF;strokeColor=#000000;" parent="2EAHLfIU27dGH2C2QQsN-1" vertex="1">
                    <mxGeometry x="401" y="200" width="160" height="40" as="geometry"/>
                </mxCell>
                <mxCell id="2EAHLfIU27dGH2C2QQsN-6" value="&lt;font color=&quot;#000000&quot;&gt;Operation&lt;/font&gt;" style="rounded=0;whiteSpace=wrap;html=1;fontSize=14;fillColor=#FFFFFF;strokeColor=#000000;" parent="2EAHLfIU27dGH2C2QQsN-1" vertex="1">
                    <mxGeometry x="241" y="240" width="320" height="40" as="geometry"/>
                </mxCell>
                <mxCell id="2EAHLfIU27dGH2C2QQsN-7" value="&lt;font style=&quot;font-size: 14px&quot;&gt;Ethernet is 1&lt;/font&gt;" style="text;html=1;align=left;verticalAlign=middle;resizable=0;points=[];autosize=1;strokeColor=none;fillColor=none;fontSize=12;fontColor=#000000;" parent="2EAHLfIU27dGH2C2QQsN-1" vertex="1">
                    <mxGeometry x="581" y="130" width="100" height="20" as="geometry"/>
                </mxCell>
                <mxCell id="2EAHLfIU27dGH2C2QQsN-8" value="For IPv4, it has the value 0x800" style="text;html=1;align=left;verticalAlign=middle;resizable=0;points=[];autosize=1;strokeColor=none;fillColor=none;fontSize=14;fontColor=#000000;" parent="2EAHLfIU27dGH2C2QQsN-1" vertex="1">
                    <mxGeometry x="581" y="170" width="210" height="20" as="geometry"/>
                </mxCell>
                <mxCell id="2EAHLfIU27dGH2C2QQsN-9" value="&lt;font color=&quot;#000000&quot;&gt;Ethernet address length is 6&lt;/font&gt;" style="text;html=1;align=right;verticalAlign=middle;resizable=0;points=[];autosize=1;strokeColor=none;fillColor=none;fontSize=14;" parent="2EAHLfIU27dGH2C2QQsN-1" vertex="1">
                    <mxGeometry x="35" y="210" width="200" height="20" as="geometry"/>
                </mxCell>
                <mxCell id="2EAHLfIU27dGH2C2QQsN-10" value="IPv4 address length is 4" style="text;html=1;align=left;verticalAlign=middle;resizable=0;points=[];autosize=1;strokeColor=none;fillColor=none;fontSize=14;fontColor=#000000;" parent="2EAHLfIU27dGH2C2QQsN-1" vertex="1">
                    <mxGeometry x="581" y="210" width="170" height="20" as="geometry"/>
                </mxCell>
                <mxCell id="2EAHLfIU27dGH2C2QQsN-11" value="1 for request, 2 for reply" style="text;html=1;align=left;verticalAlign=middle;resizable=0;points=[];autosize=1;strokeColor=none;fillColor=none;fontSize=14;fontColor=#000000;" parent="2EAHLfIU27dGH2C2QQsN-1" vertex="1">
                    <mxGeometry x="581" y="250" width="170" height="20" as="geometry"/>
                </mxCell>
                <mxCell id="2EAHLfIU27dGH2C2QQsN-12" value="0" style="text;html=1;align=center;verticalAlign=middle;resizable=0;points=[];autosize=1;strokeColor=none;fillColor=none;fontSize=14;fontColor=#000000;" parent="2EAHLfIU27dGH2C2QQsN-1" vertex="1">
                    <mxGeometry x="237" y="99" width="20" height="20" as="geometry"/>
                </mxCell>
                <mxCell id="2EAHLfIU27dGH2C2QQsN-13" value="8" style="text;html=1;align=center;verticalAlign=middle;resizable=0;points=[];autosize=1;strokeColor=none;fillColor=none;fontSize=14;fontColor=#000000;" parent="2EAHLfIU27dGH2C2QQsN-1" vertex="1">
                    <mxGeometry x="398" y="99" width="20" height="20" as="geometry"/>
                </mxCell>
                <mxCell id="2EAHLfIU27dGH2C2QQsN-14" value="7" style="text;html=1;align=center;verticalAlign=middle;resizable=0;points=[];autosize=1;strokeColor=none;fillColor=none;fontSize=14;fontColor=#000000;" parent="2EAHLfIU27dGH2C2QQsN-1" vertex="1">
                    <mxGeometry x="385" y="100" width="20" height="20" as="geometry"/>
                </mxCell>
                <mxCell id="2EAHLfIU27dGH2C2QQsN-15" value="15" style="text;html=1;align=center;verticalAlign=middle;resizable=0;points=[];autosize=1;strokeColor=none;fillColor=none;fontSize=14;fontColor=#000000;" parent="2EAHLfIU27dGH2C2QQsN-1" vertex="1">
                    <mxGeometry x="536" y="99" width="30" height="20" as="geometry"/>
                </mxCell>
                <mxCell id="2EAHLfIU27dGH2C2QQsN-16" value="bit" style="text;html=1;align=center;verticalAlign=middle;resizable=0;points=[];autosize=1;strokeColor=none;fillColor=none;fontSize=14;fontColor=#000000;" parent="2EAHLfIU27dGH2C2QQsN-1" vertex="1">
                    <mxGeometry x="205" y="100" width="30" height="20" as="geometry"/>
                </mxCell>
                <mxCell id="h4omkXk8J46wiH_T5vhW-0" value="&lt;font style=&quot;font-size: 18px&quot;&gt;&lt;b&gt;&lt;u&gt;ARP Header&lt;/u&gt;&lt;/b&gt;&lt;/font&gt;" style="text;html=1;align=center;verticalAlign=middle;resizable=0;points=[];autosize=1;strokeColor=none;fillColor=none;fontSize=14;fontColor=#000000;" parent="2EAHLfIU27dGH2C2QQsN-1" vertex="1">
                    <mxGeometry x="338" y="68" width="120" height="20" as="geometry"/>
                </mxCell>
            </root>
        </mxGraphModel>
    </diagram>
    <diagram id="_2XUw_twb4JR8st0KvYg" name="arp payload">
        <mxGraphModel dx="754" dy="539" grid="1" gridSize="10" guides="1" tooltips="1" connect="1" arrows="1" fold="1" page="1" pageScale="1" pageWidth="827" pageHeight="1169" math="0" shadow="0">
            <root>
                <mxCell id="MSTKruTcyLvqZkkhgq5r-0"/>
                <mxCell id="MSTKruTcyLvqZkkhgq5r-1" parent="MSTKruTcyLvqZkkhgq5r-0"/>
                <mxCell id="LPIKeW6VIaucOsjL4KOo-2" value="" style="rounded=0;whiteSpace=wrap;html=1;fontSize=18;fontColor=#000000;strokeColor=none;fillColor=#FFFFFF;" parent="MSTKruTcyLvqZkkhgq5r-1" vertex="1">
                    <mxGeometry x="200" y="50" width="400" height="490" as="geometry"/>
                </mxCell>
                <mxCell id="NDCXMEcsE9alQybYH-J3-0" value="&lt;font color=&quot;#000000&quot;&gt;Sender Hardware Address&lt;br&gt;(For ethernet, it is MAC address)&lt;br&gt;(For MAC address, the length is 6 bytes)&lt;br&gt;&lt;/font&gt;" style="rounded=0;whiteSpace=wrap;html=1;fontSize=14;strokeColor=#000000;fillColor=#FFFFFF;" parent="MSTKruTcyLvqZkkhgq5r-1" vertex="1">
                    <mxGeometry x="241" y="120" width="320" height="120" as="geometry"/>
                </mxCell>
                <mxCell id="NDCXMEcsE9alQybYH-J3-1" value="&lt;font color=&quot;#000000&quot;&gt;Target Hardware Address&lt;br&gt;&lt;/font&gt;&lt;span style=&quot;color: rgb(0 , 0 , 0)&quot;&gt;(For ethernet, it is MAC address)&lt;br&gt;&lt;/span&gt;&lt;span style=&quot;color: rgb(0 , 0 , 0)&quot;&gt;(For MAC address, the length is 6 bytes)&lt;/span&gt;&lt;font color=&quot;#000000&quot;&gt;&lt;br&gt;&lt;/font&gt;" style="rounded=0;whiteSpace=wrap;html=1;fontSize=14;fillColor=#FFFFFF;strokeColor=#000000;" parent="MSTKruTcyLvqZkkhgq5r-1" vertex="1">
                    <mxGeometry x="241" y="320" width="320" height="120" as="geometry"/>
                </mxCell>
                <mxCell id="NDCXMEcsE9alQybYH-J3-4" value="&lt;font color=&quot;#000000&quot;&gt;Sender Protocol Address&lt;br&gt;(For IPv4, it is IP address)&lt;br&gt;(For IP address, the length is 4 bytes)&lt;br&gt;&lt;/font&gt;" style="rounded=0;whiteSpace=wrap;html=1;fontSize=14;fillColor=#FFFFFF;strokeColor=#000000;" parent="MSTKruTcyLvqZkkhgq5r-1" vertex="1">
                    <mxGeometry x="241" y="240" width="320" height="80" as="geometry"/>
                </mxCell>
                <mxCell id="NDCXMEcsE9alQybYH-J3-10" value="0" style="text;html=1;align=center;verticalAlign=middle;resizable=0;points=[];autosize=1;strokeColor=none;fillColor=none;fontSize=14;fontColor=#000000;" parent="MSTKruTcyLvqZkkhgq5r-1" vertex="1">
                    <mxGeometry x="237" y="99" width="20" height="20" as="geometry"/>
                </mxCell>
                <mxCell id="NDCXMEcsE9alQybYH-J3-11" value="8" style="text;html=1;align=center;verticalAlign=middle;resizable=0;points=[];autosize=1;strokeColor=none;fillColor=none;fontSize=14;fontColor=#000000;" parent="MSTKruTcyLvqZkkhgq5r-1" vertex="1">
                    <mxGeometry x="398" y="99" width="20" height="20" as="geometry"/>
                </mxCell>
                <mxCell id="NDCXMEcsE9alQybYH-J3-13" value="7" style="text;html=1;align=center;verticalAlign=middle;resizable=0;points=[];autosize=1;strokeColor=none;fillColor=none;fontSize=14;fontColor=#000000;" parent="MSTKruTcyLvqZkkhgq5r-1" vertex="1">
                    <mxGeometry x="385" y="100" width="20" height="20" as="geometry"/>
                </mxCell>
                <mxCell id="NDCXMEcsE9alQybYH-J3-14" value="15" style="text;html=1;align=center;verticalAlign=middle;resizable=0;points=[];autosize=1;strokeColor=none;fillColor=none;fontSize=14;fontColor=#000000;" parent="MSTKruTcyLvqZkkhgq5r-1" vertex="1">
                    <mxGeometry x="536" y="99" width="30" height="20" as="geometry"/>
                </mxCell>
                <mxCell id="NDCXMEcsE9alQybYH-J3-15" value="bit" style="text;html=1;align=center;verticalAlign=middle;resizable=0;points=[];autosize=1;strokeColor=none;fillColor=none;fontSize=14;fontColor=#000000;" parent="MSTKruTcyLvqZkkhgq5r-1" vertex="1">
                    <mxGeometry x="209" y="100" width="30" height="20" as="geometry"/>
                </mxCell>
                <mxCell id="NDCXMEcsE9alQybYH-J3-16" value="&lt;font style=&quot;font-size: 18px&quot;&gt;&lt;b&gt;&lt;u&gt;ARP Payload&lt;/u&gt;&lt;/b&gt;&lt;/font&gt;" style="text;html=1;align=center;verticalAlign=middle;resizable=0;points=[];autosize=1;strokeColor=none;fillColor=none;fontSize=14;fontColor=#000000;" parent="MSTKruTcyLvqZkkhgq5r-1" vertex="1">
                    <mxGeometry x="333" y="68" width="130" height="20" as="geometry"/>
                </mxCell>
                <mxCell id="LPIKeW6VIaucOsjL4KOo-0" value="&lt;font color=&quot;#000000&quot;&gt;Target Protocol Address&lt;br&gt;&lt;/font&gt;&lt;span style=&quot;color: rgb(0 , 0 , 0)&quot;&gt;(For IPv4, it is IP address)&lt;br&gt;&lt;/span&gt;&lt;span style=&quot;color: rgb(0 , 0 , 0)&quot;&gt;(For IP address, the length is 4 bytes)&lt;/span&gt;&lt;font color=&quot;#000000&quot;&gt;&lt;br&gt;&lt;/font&gt;" style="rounded=0;whiteSpace=wrap;html=1;fontSize=14;fillColor=#FFFFFF;strokeColor=#000000;" parent="MSTKruTcyLvqZkkhgq5r-1" vertex="1">
                    <mxGeometry x="241" y="440" width="320" height="80" as="geometry"/>
                </mxCell>
            </root>
        </mxGraphModel>
    </diagram>
    <diagram id="rIeu9k7LeofNv-xaOc1l" name="arp packet">
        <mxGraphModel dx="754" dy="539" grid="1" gridSize="10" guides="1" tooltips="1" connect="1" arrows="1" fold="1" page="1" pageScale="1" pageWidth="827" pageHeight="1169" math="0" shadow="0">
            <root>
                <mxCell id="0"/>
                <mxCell id="1" parent="0"/>
                <mxCell id="4d5N1Z2FXwr3NfoHXgmk-4" value="" style="rounded=0;whiteSpace=wrap;html=1;fontSize=18;fontColor=#000000;strokeColor=none;fillColor=#FFFFFF;" parent="1" vertex="1">
                    <mxGeometry x="110" y="30" width="510" height="110" as="geometry"/>
                </mxCell>
                <mxCell id="2" value="&lt;font style=&quot;font-size: 14px&quot;&gt;Ethernet header&lt;/font&gt;" style="rounded=0;whiteSpace=wrap;html=1;fontColor=#000000;strokeColor=#000000;fillColor=#FFFFFF;" parent="1" vertex="1">
                    <mxGeometry x="120" y="80" width="160" height="40" as="geometry"/>
                </mxCell>
                <mxCell id="3" value="&lt;font style=&quot;font-size: 14px&quot;&gt;ARP header&lt;/font&gt;" style="rounded=0;whiteSpace=wrap;html=1;fontColor=#000000;strokeColor=#000000;fillColor=#FFFFFF;" parent="1" vertex="1">
                    <mxGeometry x="280" y="80" width="160" height="40" as="geometry"/>
                </mxCell>
                <mxCell id="4" value="&lt;font style=&quot;font-size: 14px&quot;&gt;ARP payload&lt;/font&gt;" style="rounded=0;whiteSpace=wrap;html=1;fontColor=#000000;strokeColor=#000000;fillColor=#FFFFFF;" parent="1" vertex="1">
                    <mxGeometry x="440" y="80" width="160" height="40" as="geometry"/>
                </mxCell>
                <mxCell id="4d5N1Z2FXwr3NfoHXgmk-5" value="&lt;b&gt;&lt;u&gt;ARP Packet&lt;/u&gt;&lt;/b&gt;" style="text;html=1;strokeColor=none;fillColor=none;align=center;verticalAlign=middle;whiteSpace=wrap;rounded=0;fontSize=18;fontColor=#000000;" parent="1" vertex="1">
                    <mxGeometry x="290" y="40" width="140" height="30" as="geometry"/>
                </mxCell>
            </root>
        </mxGraphModel>
    </diagram>
</mxfile>